<svg width="550" height="100" xmlns="http://www.w3.org/2000/svg">
  <!-- Background -->
  <rect width="550" height="100" fill="#1e1e1e" rx="10"/>
  
  <!-- SATELLITE text -->
  <!-- S -->
  <rect x="20" y="20" width="8" height="8" fill="#ff8c00"/>
  <rect x="28" y="20" width="8" height="8" fill="#ff8c00"/>
  <rect x="36" y="20" width="8" height="8" fill="#ff8c00"/>
  <rect x="20" y="28" width="8" height="8" fill="#ff8c00"/>
  <rect x="20" y="36" width="8" height="8" fill="#ff8c00"/>
  <rect x="28" y="36" width="8" height="8" fill="#ff8c00"/>
  <rect x="36" y="36" width="8" height="8" fill="#ff8c00"/>
  <rect x="36" y="44" width="8" height="8" fill="#ff8c00"/>
  <rect x="20" y="52" width="8" height="8" fill="#ff8c00"/>
  <rect x="28" y="52" width="8" height="8" fill="#ff8c00"/>
  <rect x="36" y="52" width="8" height="8" fill="#ff8c00"/>
  
  <!-- A -->
  <rect x="52" y="28" width="8" height="8" fill="#ffffff"/>
  <rect x="60" y="20" width="8" height="8" fill="#ffffff"/>
  <rect x="68" y="28" width="8" height="8" fill="#ffffff"/>
  <rect x="52" y="36" width="8" height="8" fill="#ffffff"/>
  <rect x="60" y="36" width="8" height="8" fill="#ff8c00"/>
  <rect x="68" y="36" width="8" height="8" fill="#ffffff"/>
  <rect x="52" y="44" width="8" height="8" fill="#ffffff"/>
  <rect x="68" y="44" width="8" height="8" fill="#ffffff"/>
  <rect x="52" y="52" width="8" height="8" fill="#ffffff"/>
  <rect x="68" y="52" width="8" height="8" fill="#ffffff"/>
  
  <!-- T -->
  <rect x="84" y="20" width="8" height="8" fill="#ffffff"/>
  <rect x="92" y="20" width="8" height="8" fill="#ffffff"/>
  <rect x="100" y="20" width="8" height="8" fill="#ffffff"/>
  <rect x="92" y="28" width="8" height="8" fill="#ffffff"/>
  <rect x="92" y="36" width="8" height="8" fill="#ffffff"/>
  <rect x="92" y="44" width="8" height="8" fill="#ffffff"/>
  <rect x="92" y="52" width="8" height="8" fill="#ffffff"/>
  
  <!-- E -->
  <rect x="116" y="20" width="8" height="8" fill="#ffffff"/>
  <rect x="124" y="20" width="8" height="8" fill="#ffffff"/>
  <rect x="132" y="20" width="8" height="8" fill="#ffffff"/>
  <rect x="116" y="28" width="8" height="8" fill="#ffffff"/>
  <rect x="116" y="36" width="8" height="8" fill="#ffffff"/>
  <rect x="124" y="36" width="8" height="8" fill="#ff8c00"/>
  <rect x="116" y="44" width="8" height="8" fill="#ffffff"/>
  <rect x="116" y="52" width="8" height="8" fill="#ffffff"/>
  <rect x="124" y="52" width="8" height="8" fill="#ffffff"/>
  <rect x="132" y="52" width="8" height="8" fill="#ffffff"/>
  
  <!-- L -->
  <rect x="148" y="20" width="8" height="8" fill="#ffffff"/>
  <rect x="148" y="28" width="8" height="8" fill="#ffffff"/>
  <rect x="148" y="36" width="8" height="8" fill="#ffffff"/>
  <rect x="148" y="44" width="8" height="8" fill="#ffffff"/>
  <rect x="148" y="52" width="8" height="8" fill="#ffffff"/>
  <rect x="156" y="52" width="8" height="8" fill="#ffffff"/>
  <rect x="164" y="52" width="8" height="8" fill="#ffffff"/>
  
  <!-- L -->
  <rect x="180" y="20" width="8" height="8" fill="#ffffff"/>
  <rect x="180" y="28" width="8" height="8" fill="#ffffff"/>
  <rect x="180" y="36" width="8" height="8" fill="#ffffff"/>
  <rect x="180" y="44" width="8" height="8" fill="#ffffff"/>
  <rect x="180" y="52" width="8" height="8" fill="#ffffff"/>
  <rect x="188" y="52" width="8" height="8" fill="#ffffff"/>
  <rect x="196" y="52" width="8" height="8" fill="#ffffff"/>
  
  <!-- I -->
  <rect x="212" y="20" width="8" height="8" fill="#ffffff"/>
  <rect x="212" y="28" width="8" height="8" fill="#ffffff"/>
  <rect x="212" y="36" width="8" height="8" fill="#ff8c00"/>
  <rect x="212" y="44" width="8" height="8" fill="#ffffff"/>
  <rect x="212" y="52" width="8" height="8" fill="#ffffff"/>
  
  <!-- T -->
  <rect x="228" y="20" width="8" height="8" fill="#ffffff"/>
  <rect x="236" y="20" width="8" height="8" fill="#ffffff"/>
  <rect x="244" y="20" width="8" height="8" fill="#ffffff"/>
  <rect x="236" y="28" width="8" height="8" fill="#ffffff"/>
  <rect x="236" y="36" width="8" height="8" fill="#ffffff"/>
  <rect x="236" y="44" width="8" height="8" fill="#ffffff"/>
  <rect x="236" y="52" width="8" height="8" fill="#ffffff"/>
  
  <!-- E -->
  <rect x="260" y="20" width="8" height="8" fill="#ffffff"/>
  <rect x="268" y="20" width="8" height="8" fill="#ffffff"/>
  <rect x="276" y="20" width="8" height="8" fill="#ffffff"/>
  <rect x="260" y="28" width="8" height="8" fill="#ffffff"/>
  <rect x="260" y="36" width="8" height="8" fill="#ffffff"/>
  <rect x="268" y="36" width="8" height="8" fill="#ff8c00"/>
  <rect x="260" y="44" width="8" height="8" fill="#ffffff"/>
  <rect x="260" y="52" width="8" height="8" fill="#ffffff"/>
  <rect x="268" y="52" width="8" height="8" fill="#ffffff"/>
  <rect x="276" y="52" width="8" height="8" fill="#ffffff"/>
  
  <!-- MONITOR text -->
  <!-- M -->
  <rect x="308" y="20" width="8" height="8" fill="#ff8c00"/>
  <rect x="316" y="28" width="8" height="8" fill="#ff8c00"/>
  <rect x="324" y="36" width="8" height="8" fill="#ff8c00"/>
  <rect x="332" y="28" width="8" height="8" fill="#ff8c00"/>
  <rect x="340" y="20" width="8" height="8" fill="#ff8c00"/>
  <rect x="308" y="28" width="8" height="8" fill="#ff8c00"/>
  <rect x="340" y="28" width="8" height="8" fill="#ff8c00"/>
  <rect x="308" y="36" width="8" height="8" fill="#ff8c00"/>
  <rect x="340" y="36" width="8" height="8" fill="#ff8c00"/>
  <rect x="308" y="44" width="8" height="8" fill="#ff8c00"/>
  <rect x="340" y="44" width="8" height="8" fill="#ff8c00"/>
  <rect x="308" y="52" width="8" height="8" fill="#ff8c00"/>
  <rect x="340" y="52" width="8" height="8" fill="#ff8c00"/>
  
  <!-- O -->
  <rect x="356" y="20" width="8" height="8" fill="#ffffff"/>
  <rect x="364" y="20" width="8" height="8" fill="#ffffff"/>
  <rect x="372" y="20" width="8" height="8" fill="#ffffff"/>
  <rect x="356" y="28" width="8" height="8" fill="#ffffff"/>
  <rect x="372" y="28" width="8" height="8" fill="#ffffff"/>
  <rect x="356" y="36" width="8" height="8" fill="#ffffff"/>
  <rect x="372" y="36" width="8" height="8" fill="#ffffff"/>
  <rect x="356" y="44" width="8" height="8" fill="#ffffff"/>
  <rect x="372" y="44" width="8" height="8" fill="#ffffff"/>
  <rect x="356" y="52" width="8" height="8" fill="#ffffff"/>
  <rect x="364" y="52" width="8" height="8" fill="#ffffff"/>
  <rect x="372" y="52" width="8" height="8" fill="#ffffff"/>
  
  <!-- N -->
  <rect x="388" y="20" width="8" height="8" fill="#ffffff"/>
  <rect x="404" y="20" width="8" height="8" fill="#ffffff"/>
  <rect x="388" y="28" width="8" height="8" fill="#ffffff"/>
  <rect x="396" y="28" width="8" height="8" fill="#ff8c00"/>
  <rect x="404" y="28" width="8" height="8" fill="#ffffff"/>
  <rect x="388" y="36" width="8" height="8" fill="#ffffff"/>
  <rect x="396" y="36" width="8" height="8" fill="#ff8c00"/>
  <rect x="404" y="36" width="8" height="8" fill="#ffffff"/>
  <rect x="388" y="44" width="8" height="8" fill="#ffffff"/>
  <rect x="396" y="44" width="8" height="8" fill="#ff8c00"/>
  <rect x="404" y="44" width="8" height="8" fill="#ffffff"/>
  <rect x="388" y="52" width="8" height="8" fill="#ffffff"/>
  <rect x="404" y="52" width="8" height="8" fill="#ffffff"/>
  
  <!-- I -->
  <rect x="420" y="20" width="8" height="8" fill="#ffffff"/>
  <rect x="420" y="28" width="8" height="8" fill="#ffffff"/>
  <rect x="420" y="36" width="8" height="8" fill="#ff8c00"/>
  <rect x="420" y="44" width="8" height="8" fill="#ffffff"/>
  <rect x="420" y="52" width="8" height="8" fill="#ffffff"/>
  
  <!-- T -->
  <rect x="436" y="20" width="8" height="8" fill="#ffffff"/>
  <rect x="444" y="20" width="8" height="8" fill="#ffffff"/>
  <rect x="452" y="20" width="8" height="8" fill="#ffffff"/>
  <rect x="444" y="28" width="8" height="8" fill="#ffffff"/>
  <rect x="444" y="36" width="8" height="8" fill="#ffffff"/>
  <rect x="444" y="44" width="8" height="8" fill="#ffffff"/>
  <rect x="444" y="52" width="8" height="8" fill="#ffffff"/>
  
  <!-- O -->
  <rect x="468" y="20" width="8" height="8" fill="#ff8c00"/>
  <rect x="476" y="20" width="8" height="8" fill="#ff8c00"/>
  <rect x="484" y="20" width="8" height="8" fill="#ff8c00"/>
  <rect x="468" y="28" width="8" height="8" fill="#ff8c00"/>
  <rect x="484" y="28" width="8" height="8" fill="#ff8c00"/>
  <rect x="468" y="36" width="8" height="8" fill="#ff8c00"/>
  <rect x="484" y="36" width="8" height="8" fill="#ff8c00"/>
  <rect x="468" y="44" width="8" height="8" fill="#ff8c00"/>
  <rect x="484" y="44" width="8" height="8" fill="#ff8c00"/>
  <rect x="468" y="52" width="8" height="8" fill="#ff8c00"/>
  <rect x="476" y="52" width="8" height="8" fill="#ff8c00"/>
  <rect x="484" y="52" width="8" height="8" fill="#ff8c00"/>
  
  <!-- R -->
  <rect x="500" y="20" width="8" height="8" fill="#ffffff"/>
  <rect x="508" y="20" width="8" height="8" fill="#ffffff"/>
  <rect x="516" y="20" width="8" height="8" fill="#ffffff"/>
  <rect x="500" y="28" width="8" height="8" fill="#ffffff"/>
  <rect x="516" y="28" width="8" height="8" fill="#ffffff"/>
  <rect x="500" y="36" width="8" height="8" fill="#ffffff"/>
  <rect x="508" y="36" width="8" height="8" fill="#ffffff"/>
  <rect x="516" y="36" width="8" height="8" fill="#ffffff"/>
  <rect x="500" y="44" width="8" height="8" fill="#ffffff"/>
  <rect x="508" y="44" width="8" height="8" fill="#ff8c00"/>
  <rect x="516" y="44" width="8" height="8" fill="#ffffff"/>
  <rect x="500" y="52" width="8" height="8" fill="#ffffff"/>
  <rect x="524" y="52" width="8" height="8" fill="#ffffff"/>
  
  <!-- Decorative stars -->
  <circle cx="295" cy="30" r="2" fill="#ffffff" opacity="0.6"/>
  <circle cx="295" cy="50" r="1.5" fill="#ffffff" opacity="0.4"/>
  <circle cx="550" cy="70" r="1" fill="#ffffff" opacity="0.5"/>
  <circle cx="620" cy="25" r="1.5" fill="#ffffff" opacity="0.7"/>
  <circle cx="660" cy="45" r="1" fill="#ffffff" opacity="0.5"/>
</svg>
